<mxfile host="Electron" modified="2023-11-18T13:47:25.449Z" agent="Mozilla/5.0 (Windows NT 10.0; Win64; x64) AppleWebKit/537.36 (KHTML, like Gecko) draw.io/22.1.2 Chrome/114.0.5735.289 Electron/25.9.4 Safari/537.36" etag="7AK2Yn1gRTPeA4wGvb5K" version="22.1.2" type="device">
  <diagram id="yPxyJZ8AM_hMuL3Unpa9" name="complex gitflow">
    <mxGraphModel dx="1687" dy="993" grid="1" gridSize="10" guides="1" tooltips="1" connect="1" arrows="1" fold="1" page="1" pageScale="1" pageWidth="800" pageHeight="500" math="0" shadow="0">
      <root>
        <mxCell id="0" />
        <mxCell id="1" parent="0" />
        <mxCell id="fmBBOOYbSOcPwXFPNCgC-2" value="&lt;font style=&quot;font-size: 14px;&quot;&gt;SDF Stage&lt;/font&gt;" style="swimlane;whiteSpace=wrap;html=1;fontFamily=SF UI Display;" vertex="1" parent="1">
          <mxGeometry x="35" y="60" width="320" height="380" as="geometry" />
        </mxCell>
        <mxCell id="fmBBOOYbSOcPwXFPNCgC-3" value="&lt;font style=&quot;font-size: 14px;&quot; face=&quot;SF UI Display&quot;&gt;Color Stage/Postprocessing&lt;/font&gt;" style="swimlane;whiteSpace=wrap;html=1;" vertex="1" parent="1">
          <mxGeometry x="385" y="60" width="380" height="380" as="geometry" />
        </mxCell>
        <mxCell id="fmBBOOYbSOcPwXFPNCgC-75" value="ColorTexture" style="rounded=1;arcSize=10;whiteSpace=wrap;align=center;fontSize=16;shadow=1;html=1;labelBorderColor=none;fixDash=0;fillColor=#d80073;fontColor=#ffffff;strokeColor=#A50040;" vertex="1" parent="fmBBOOYbSOcPwXFPNCgC-3">
          <mxGeometry x="260" y="190" width="100" height="40" as="geometry" />
        </mxCell>
        <mxCell id="fmBBOOYbSOcPwXFPNCgC-15" value="" style="edgeStyle=none;curved=1;rounded=0;orthogonalLoop=1;jettySize=auto;exitX=1;exitY=0.5;exitDx=0;exitDy=0;entryX=0;entryY=0.5;entryDx=0;entryDy=0;fontSize=12;startSize=8;endSize=8;shadow=1;html=1;align=center;labelBorderColor=none;fixDash=0;opacity=50;fillColor=#60a917;strokeColor=#2D7600;" edge="1" parent="1" source="fmBBOOYbSOcPwXFPNCgC-12" target="fmBBOOYbSOcPwXFPNCgC-14">
          <mxGeometry relative="1" as="geometry" />
        </mxCell>
        <mxCell id="fmBBOOYbSOcPwXFPNCgC-12" value="Primitive" style="rounded=1;arcSize=10;whiteSpace=wrap;align=center;fontSize=16;shadow=1;html=1;labelBorderColor=none;fixDash=0;opacity=50;fillColor=#60a917;fontColor=#ffffff;strokeColor=#2D7600;" vertex="1" parent="1">
          <mxGeometry x="65" y="130" width="100" height="40" as="geometry" />
        </mxCell>
        <mxCell id="fmBBOOYbSOcPwXFPNCgC-16" value="" style="edgeStyle=none;curved=1;rounded=0;orthogonalLoop=1;jettySize=auto;exitX=1;exitY=0.5;exitDx=0;exitDy=0;entryX=0;entryY=0.5;entryDx=0;entryDy=0;fontSize=12;startSize=8;endSize=8;shadow=1;html=1;align=center;labelBorderColor=none;fixDash=0;opacity=50;fillColor=#60a917;strokeColor=#2D7600;" edge="1" parent="1" source="fmBBOOYbSOcPwXFPNCgC-13" target="fmBBOOYbSOcPwXFPNCgC-14">
          <mxGeometry relative="1" as="geometry" />
        </mxCell>
        <mxCell id="fmBBOOYbSOcPwXFPNCgC-13" value="Primitive" style="rounded=1;arcSize=10;whiteSpace=wrap;align=center;fontSize=16;shadow=1;html=1;labelBorderColor=none;fixDash=0;opacity=50;fillColor=#60a917;fontColor=#ffffff;strokeColor=#2D7600;" vertex="1" parent="1">
          <mxGeometry x="65" y="180" width="100" height="40" as="geometry" />
        </mxCell>
        <mxCell id="fmBBOOYbSOcPwXFPNCgC-24" value="" style="edgeStyle=none;curved=1;rounded=0;orthogonalLoop=1;jettySize=auto;exitX=1;exitY=0.5;exitDx=0;exitDy=0;entryX=0;entryY=0.5;entryDx=0;entryDy=0;fontSize=12;startSize=8;endSize=8;shadow=1;html=1;align=center;labelBorderColor=none;fixDash=0;opacity=50;" edge="1" parent="1" source="fmBBOOYbSOcPwXFPNCgC-14" target="fmBBOOYbSOcPwXFPNCgC-23">
          <mxGeometry relative="1" as="geometry" />
        </mxCell>
        <mxCell id="fmBBOOYbSOcPwXFPNCgC-14" value="SDFTexture" style="rounded=1;arcSize=10;whiteSpace=wrap;align=center;fontSize=16;fontFamily=SF UI Display;shadow=1;html=1;labelBorderColor=none;fixDash=0;opacity=50;fillColor=#60a917;fontColor=#ffffff;strokeColor=#2D7600;" vertex="1" parent="1">
          <mxGeometry x="225" y="150" width="100" height="40" as="geometry" />
        </mxCell>
        <mxCell id="fmBBOOYbSOcPwXFPNCgC-26" value="" style="edgeStyle=none;curved=1;rounded=0;orthogonalLoop=1;jettySize=auto;exitX=1;exitY=0.5;exitDx=0;exitDy=0;entryX=0;entryY=0.5;entryDx=0;entryDy=0;fontSize=12;startSize=8;endSize=8;shadow=1;html=1;align=center;labelBorderColor=none;fixDash=0;opacity=50;" edge="1" parent="1" source="fmBBOOYbSOcPwXFPNCgC-19" target="fmBBOOYbSOcPwXFPNCgC-23">
          <mxGeometry relative="1" as="geometry" />
        </mxCell>
        <mxCell id="fmBBOOYbSOcPwXFPNCgC-19" value="Primitive" style="rounded=1;arcSize=10;whiteSpace=wrap;align=center;fontSize=16;shadow=1;html=1;labelBorderColor=none;fixDash=0;opacity=50;fillColor=#60a917;fontColor=#ffffff;strokeColor=#2D7600;" vertex="1" parent="1">
          <mxGeometry x="65" y="250" width="100" height="40" as="geometry" />
        </mxCell>
        <mxCell id="fmBBOOYbSOcPwXFPNCgC-23" value="ColorTexture" style="rounded=1;arcSize=10;whiteSpace=wrap;align=center;fontSize=16;shadow=1;html=1;labelBorderColor=none;fixDash=0;opacity=50;fillColor=#d80073;fontColor=#ffffff;strokeColor=#A50040;" vertex="1" parent="1">
          <mxGeometry x="425" y="190" width="100" height="40" as="geometry" />
        </mxCell>
        <mxCell id="fmBBOOYbSOcPwXFPNCgC-63" value="" style="edgeStyle=none;curved=1;rounded=0;orthogonalLoop=1;jettySize=auto;exitX=1;exitY=0.5;exitDx=0;exitDy=0;entryX=0;entryY=0.5;entryDx=0;entryDy=0;fontSize=12;startSize=8;endSize=8;shadow=1;html=1;align=center;labelBorderColor=none;fixDash=0;fillColor=#60a917;strokeColor=#2D7600;" edge="1" parent="1" source="fmBBOOYbSOcPwXFPNCgC-64" target="fmBBOOYbSOcPwXFPNCgC-68">
          <mxGeometry relative="1" as="geometry" />
        </mxCell>
        <mxCell id="fmBBOOYbSOcPwXFPNCgC-64" value="Primitive" style="rounded=1;arcSize=10;whiteSpace=wrap;align=center;fontSize=16;shadow=1;html=1;labelBorderColor=none;fixDash=0;fillColor=#60a917;fontColor=#ffffff;strokeColor=#2D7600;" vertex="1" parent="1">
          <mxGeometry x="75" y="140" width="100" height="40" as="geometry" />
        </mxCell>
        <mxCell id="fmBBOOYbSOcPwXFPNCgC-65" value="" style="edgeStyle=none;curved=1;rounded=0;orthogonalLoop=1;jettySize=auto;exitX=1;exitY=0.5;exitDx=0;exitDy=0;entryX=0;entryY=0.5;entryDx=0;entryDy=0;fontSize=12;startSize=8;endSize=8;shadow=1;html=1;align=center;labelBorderColor=none;fixDash=0;fillColor=#60a917;strokeColor=#2D7600;" edge="1" parent="1" source="fmBBOOYbSOcPwXFPNCgC-66" target="fmBBOOYbSOcPwXFPNCgC-68">
          <mxGeometry relative="1" as="geometry" />
        </mxCell>
        <mxCell id="fmBBOOYbSOcPwXFPNCgC-66" value="Primitive" style="rounded=1;arcSize=10;whiteSpace=wrap;align=center;fontSize=16;shadow=1;html=1;labelBorderColor=none;fixDash=0;fillColor=#60a917;fontColor=#ffffff;strokeColor=#2D7600;" vertex="1" parent="1">
          <mxGeometry x="75" y="190" width="100" height="40" as="geometry" />
        </mxCell>
        <mxCell id="fmBBOOYbSOcPwXFPNCgC-67" value="" style="edgeStyle=none;curved=1;rounded=0;orthogonalLoop=1;jettySize=auto;exitX=1;exitY=0.5;exitDx=0;exitDy=0;entryX=0;entryY=0.5;entryDx=0;entryDy=0;fontSize=12;startSize=8;endSize=8;shadow=1;html=1;align=center;labelBorderColor=none;fixDash=0;" edge="1" parent="1" source="fmBBOOYbSOcPwXFPNCgC-68" target="fmBBOOYbSOcPwXFPNCgC-71">
          <mxGeometry relative="1" as="geometry" />
        </mxCell>
        <mxCell id="fmBBOOYbSOcPwXFPNCgC-68" value="SDFTexture" style="rounded=1;arcSize=10;whiteSpace=wrap;align=center;fontSize=16;fontFamily=SF UI Display;shadow=1;html=1;labelBorderColor=none;fixDash=0;fillColor=#60a917;fontColor=#ffffff;strokeColor=#2D7600;" vertex="1" parent="1">
          <mxGeometry x="235" y="160" width="100" height="40" as="geometry" />
        </mxCell>
        <mxCell id="fmBBOOYbSOcPwXFPNCgC-69" value="" style="edgeStyle=none;curved=1;rounded=0;orthogonalLoop=1;jettySize=auto;exitX=1;exitY=0.5;exitDx=0;exitDy=0;entryX=0;entryY=0.5;entryDx=0;entryDy=0;fontSize=12;startSize=8;endSize=8;shadow=1;html=1;align=center;labelBorderColor=none;fixDash=0;" edge="1" parent="1" source="fmBBOOYbSOcPwXFPNCgC-70" target="fmBBOOYbSOcPwXFPNCgC-71">
          <mxGeometry relative="1" as="geometry" />
        </mxCell>
        <mxCell id="fmBBOOYbSOcPwXFPNCgC-70" value="Primitive" style="rounded=1;arcSize=10;whiteSpace=wrap;align=center;fontSize=16;shadow=1;html=1;labelBorderColor=none;fixDash=0;fillColor=#60a917;fontColor=#ffffff;strokeColor=#2D7600;" vertex="1" parent="1">
          <mxGeometry x="75" y="260" width="100" height="40" as="geometry" />
        </mxCell>
        <mxCell id="fmBBOOYbSOcPwXFPNCgC-78" style="edgeStyle=none;curved=1;rounded=0;orthogonalLoop=1;jettySize=auto;html=1;exitX=1;exitY=0.5;exitDx=0;exitDy=0;entryX=0;entryY=0.5;entryDx=0;entryDy=0;fontSize=12;startSize=8;endSize=8;fillColor=#d80073;strokeColor=#A50040;" edge="1" parent="1" source="fmBBOOYbSOcPwXFPNCgC-71" target="fmBBOOYbSOcPwXFPNCgC-75">
          <mxGeometry relative="1" as="geometry" />
        </mxCell>
        <mxCell id="fmBBOOYbSOcPwXFPNCgC-71" value="ColorTexture" style="rounded=1;arcSize=10;whiteSpace=wrap;align=center;fontSize=16;shadow=1;html=1;labelBorderColor=none;fixDash=0;fillColor=#d80073;fontColor=#ffffff;strokeColor=#A50040;" vertex="1" parent="1">
          <mxGeometry x="435" y="200" width="100" height="40" as="geometry" />
        </mxCell>
        <mxCell id="fmBBOOYbSOcPwXFPNCgC-76" style="edgeStyle=none;curved=1;rounded=0;orthogonalLoop=1;jettySize=auto;html=1;exitX=1;exitY=0.5;exitDx=0;exitDy=0;entryX=0;entryY=0.5;entryDx=0;entryDy=0;fontSize=12;startSize=8;endSize=8;fillColor=#d80073;strokeColor=#A50040;" edge="1" parent="1" source="fmBBOOYbSOcPwXFPNCgC-72" target="fmBBOOYbSOcPwXFPNCgC-75">
          <mxGeometry relative="1" as="geometry" />
        </mxCell>
        <mxCell id="fmBBOOYbSOcPwXFPNCgC-72" value="ColorTexture" style="rounded=1;arcSize=10;whiteSpace=wrap;align=center;fontSize=16;shadow=1;html=1;labelBorderColor=none;fixDash=0;fillColor=#d80073;fontColor=#ffffff;strokeColor=#A50040;" vertex="1" parent="1">
          <mxGeometry x="435" y="330" width="100" height="40" as="geometry" />
        </mxCell>
        <mxCell id="fmBBOOYbSOcPwXFPNCgC-74" style="edgeStyle=none;curved=1;rounded=0;orthogonalLoop=1;jettySize=auto;html=1;exitX=1;exitY=0.5;exitDx=0;exitDy=0;fontSize=12;startSize=8;endSize=8;" edge="1" parent="1" source="fmBBOOYbSOcPwXFPNCgC-73" target="fmBBOOYbSOcPwXFPNCgC-72">
          <mxGeometry relative="1" as="geometry" />
        </mxCell>
        <mxCell id="fmBBOOYbSOcPwXFPNCgC-73" value="Primitive" style="rounded=1;arcSize=10;whiteSpace=wrap;align=center;fontSize=16;shadow=1;html=1;labelBorderColor=none;fixDash=0;fillColor=#60a917;fontColor=#ffffff;strokeColor=#2D7600;" vertex="1" parent="1">
          <mxGeometry x="75" y="330" width="100" height="40" as="geometry" />
        </mxCell>
      </root>
    </mxGraphModel>
  </diagram>
</mxfile>
